<svg width="34" height="34" viewBox="0 0 34 34" fill="none" xmlns="http://www.w3.org/2000/svg">
<path d="M1 3C1 1.89543 1.89543 1 3 1H31C32.1046 1 33 1.89543 33 3V31C33 32.1046 32.1046 33 31 33H3C1.89543 33 1 32.1046 1 31V3Z" fill="#F8FAFC"/>
<path d="M16.9967 11.6666L16.0524 12.6066L19.7895 16.3333H11.6388V17.6666H19.7895L16.0524 21.3933L16.9967 22.3333L22.3546 17L16.9967 11.6666Z" fill="url(#paint0_linear_772_8911)"/>
<path d="M3 1.5H31V0.5H3V1.5ZM32.5 3V31H33.5V3H32.5ZM31 32.5H3V33.5H31V32.5ZM1.5 31V3H0.5V31H1.5ZM3 32.5C2.17157 32.5 1.5 31.8284 1.5 31H0.5C0.5 32.3807 1.61929 33.5 3 33.5V32.5ZM32.5 31C32.5 31.8284 31.8284 32.5 31 32.5V33.5C32.3807 33.5 33.5 32.3807 33.5 31H32.5ZM31 1.5C31.8284 1.5 32.5 2.17157 32.5 3H33.5C33.5 1.61929 32.3807 0.5 31 0.5V1.5ZM3 0.5C1.61929 0.5 0.5 1.61929 0.5 3H1.5C1.5 2.17157 2.17157 1.5 3 1.5V0.5Z" fill="url(#paint1_linear_772_8911)"/>
<defs>
<linearGradient id="paint0_linear_772_8911" x1="11.6388" y1="22.3333" x2="12.8652" y2="10.6689" gradientUnits="userSpaceOnUse">
<stop stop-color="#00489C"/>
<stop offset="1" stop-color="#1D578D"/>
</linearGradient>
<linearGradient id="paint1_linear_772_8911" x1="1" y1="33" x2="4.69578" y2="-1.98963" gradientUnits="userSpaceOnUse">
<stop stop-color="#00489C"/>
<stop offset="1" stop-color="#1D578D"/>
</linearGradient>
</defs>
</svg>
