<svg width="16" height="16" viewBox="0 0 16 16" fill="none" xmlns="http://www.w3.org/2000/svg">
<path fill-rule="evenodd" clip-rule="evenodd" d="M7.98998 1.33333C4.29304 1.33333 1.29932 4.32 1.29932 8C1.29932 11.68 4.29304 14.6667 7.98998 14.6667C11.6936 14.6667 14.694 11.68 14.694 8C14.694 4.32 11.6936 1.33333 7.98998 1.33333ZM8.66642 8.66667L8.66642 4.66667H7.32694L7.32694 8.66667H8.66642ZM8.66642 11.3333L8.66642 10H7.32694L7.32694 11.3333H8.66642ZM2.63879 8C2.63879 10.9467 5.03645 13.3333 7.99668 13.3333C10.9569 13.3333 13.3546 10.9467 13.3546 8C13.3546 5.05333 10.9569 2.66667 7.99668 2.66667C5.03645 2.66667 2.63879 5.05333 2.63879 8Z" fill="#BE123C"/>
</svg>
