<svg width="1440" height="349" viewBox="0 0 1440 349" fill="none" xmlns="http://www.w3.org/2000/svg">
<path fill-rule="evenodd" clip-rule="evenodd" d="M13.5131 233.691C374.042 158.851 473.501 287.299 896.261 331.774C1365.07 381.093 1558.46 -4.38217 1565.11 0.397365C1575.64 0.397365 1489.19 135.608 1489.19 135.608C1321.35 362.03 1143.97 432.809 963.312 434.608C544.381 459.781 358.189 187.143 -11.9774 245.882C-18.4751 239.26 -16.4106 239.903 13.5131 233.691Z" fill="#0090CF" fill-opacity="0.08"/>
<path fill-rule="evenodd" clip-rule="evenodd" d="M369.331 133.348C638.49 79.4981 713.445 184.554 1027.98 225.901C1382.07 272.449 1528.27 -4.35829 1532.4 0.0521736C1547.21 15.8815 1344.95 288.519 1073.97 300.156C761.21 318.269 626.655 99.8555 350.3 142.12C345.449 137.355 354.694 136.277 369.331 133.348Z" fill="#2867A1" fill-opacity="0.15"/>
</svg>
